PathFileType	4	(X/Y/Z)	Patient4_TMGait_0pt4_03_left_33.trc.trc
DataRate	CameraRate	NumFrames	NumMarkers	Units	OrigDataRate	OrigDataStartFrame	OrigNumFrames
72.538860103627	72.538860103627	4	33	mm	72.538860103627	106	       141
Frame#	Time	Sacral			L.Shoulder			Chest			R.Shoulder			Neck			R.ASIS			L.ASIS			R.Thigh.Superior			R.Thigh.Lateral			R.Thigh.Inferior			R.Patella			L.Thigh.Superior			L.Thigh.Lateral			L.Thigh.Inferior			L.Patella			L.Shank.Superior			L.Shank.Lateral			L.Shank.Inferior			R.Shank.Superior			R.Shank.Lateral			R.Shank.Inferior			R.Heel			R.Midfoot.Superior			R.Midfoot.Lateral			R.Toe			L.Heel			L.Midfoot.Lateral			L.Midfoot.Superior			L.Toe			L.Elbow			L.Wrist			R.Elbow			R.Wrist			
		X1	Y1	Z1	X2	Y2	Z2	X3	Y3	Z3	X4	Y4	Z4	X5	Y5	Z5	X6	Y6	Z6	X7	Y7	Z7	X8	Y8	Z8	X9	Y9	Z9	X10	Y10	Z10	X11	Y11	Z11	X12	Y12	Z12	X13	Y13	Z13	X14	Y14	Z14	X15	Y15	Z15	X16	Y16	Z16	X17	Y17	Z17	X18	Y18	Z18	X19	Y19	Z19	X20	Y20	Z20	X21	Y21	Z21	X22	Y22	Z22	X23	Y23	Z23	X24	Y24	Z24	X25	Y25	Z25	X26	Y26	Z26	X27	Y27	Z27	X28	Y28	Z28	X29	Y29	Z29	X30	Y30	Z30	X31	Y31	Z31	X32	Y32	Z32	X33	Y33	Z33	

106	44.997500000000	864.446664292212	1011.948116173245	518.674240554061	1022.475997731492	1434.037475919934	315.481203434668	1145.192212980270	1369.210858292707	464.310910138321	1083.885248519895	1445.797514643630	646.278993570348	1023.835818003033	1499.403933418353	470.134594649865	1101.952992523170	942.659440871510	613.235482557121	1062.892961981994	968.721091738511	342.415847455059	1124.131467330378	736.279499052708	582.038339488712	1036.387320324569	632.420935606366	645.493318524395	1104.893921913050	575.466479816906	562.056717691533	1098.051502777145	489.249531720004	567.042254640405	1148.163073249155	789.595674960584	360.876199500419	1101.346574547755	663.872961995141	279.194501944255	1210.759594474626	603.762662015688	329.059410301162	1226.871695777611	517.539310972864	317.567181757713	1168.195686778245	446.617715705677	310.694160278176	1031.567062201197	386.477353347182	268.366090084500	1042.830741088820	253.945541649628	315.646570119575	1065.845116897325	402.344430119274	574.454292680244	990.856637386712	301.595414961640	636.509737620046	1025.812378823140	205.416795783353	569.977065629006	885.773891673531	44.322555805245	536.298953323192	1055.687017999413	95.538827473945	577.185902655220	966.896700192448	37.051175314251	614.044111022890	1175.609412911949	41.720735047107	609.195841398765	869.131630670791	161.444445730676	362.248446987731	925.172202706082	126.660444328671	276.162804289500	1029.544817602206	148.397393694979	291.571637801657	1118.450660154999	48.867289728900	252.053257896666	917.540559822128	1089.885515822444	228.870567983995	929.942188273508	829.303768275689	221.129728643314	1155.366263396200	1127.028129502442	802.680575868796	1397.838987737642	1106.907113525347	732.916887681503	
107	45.011285714286	863.310385955859	1012.925798362190	520.256441970371	1021.392525570888	1434.517411006292	316.613334488503	1145.279232699521	1368.876417367179	464.116685606610	1086.195474540072	1445.712192983573	646.721349832871	1024.545110442946	1499.529192388058	471.291745721636	1100.878063293515	942.333310908794	613.126571578232	1060.339787445640	969.196709133012	342.564783533259	1120.913826936817	735.681755482072	581.888176867930	1032.669715570633	632.481636961583	645.889043130568	1100.241361312887	574.974011057483	562.210943386568	1092.790598190398	489.139194166738	567.277868196937	1145.810168482669	791.311794973787	361.364958276769	1100.268272426611	665.351032014942	279.302471117049	1209.759824723171	606.035663782442	329.672685083993	1227.367490097887	521.008878409029	317.755846504569	1171.835618655482	449.028244375128	310.384114591291	1038.720660229503	381.932964681900	268.068093785801	1057.621786063535	249.840016546522	314.317470728195	1060.561881997031	402.357644233998	574.759233082575	985.521706781291	301.661933566654	637.040486882014	1020.318655504546	205.478096545085	570.300540191198	880.204231317500	44.375025896710	536.464670190006	1050.133152227779	95.479321543411	577.295577583602	961.339917288139	37.015310097769	614.163109585691	1170.045783497317	41.657058889013	609.249383426470	890.016732417314	146.698507726033	361.090974272073	947.431962810412	116.450215210603	274.263788901273	1050.283278558086	144.274236033620	289.365886695690	1144.767508228626	51.184918875863	248.137034847582	909.921754895823	1092.085205151533	232.532438839704	917.844345695997	831.175563858063	227.057039962619	1164.270356957172	1128.792795468844	802.221768401195	1406.380842685407	1119.969655290131	730.144709422217	
108	45.025071428571	862.155288081601	1013.749068128088	521.628894573112	1020.409836768250	1434.864890072335	317.592924069742	1145.363782221634	1368.394231779788	463.824472731691	1088.402209207026	1445.441072396441	647.023384985522	1025.233841479488	1499.503770926915	472.322773571675	1099.795441889765	941.891981294696	612.841360318532	1057.829204828844	969.457912241489	342.511330478116	1117.705906080546	735.044262914501	581.541067615439	1029.075647755688	632.474155056904	646.198715401807	1095.656242708581	574.436770135888	562.246163193207	1087.607598990947	488.971304305262	567.457291881762	1143.122467080174	792.366734581347	361.643479859495	1098.586886757545	666.266652070684	279.261344968044	1207.859333470078	607.449455964815	330.406522677952	1226.862130994345	523.865627230311	318.075142484047	1174.737259814751	451.040478465032	310.115229253456	1045.897058936157	376.718394790209	267.451255523165	1072.750716239241	245.529833406136	312.812498415706	1055.337136621854	402.309439146804	574.996533133115	980.244925644331	301.675487681503	637.488808242526	1014.849264360891	205.486932808124	570.562846165341	874.638299739207	44.395516642192	536.617146342377	1044.573306628405	95.418290407345	577.379893854885	955.781868010267	36.976794466632	614.270700253975	1164.480279962218	41.602086994515	609.294657570381	912.080024011923	131.669018613504	359.421681776882	970.871924206830	106.075103159727	272.045433545783	1071.775951835437	140.128883589542	287.039133924889	1171.767365331320	53.917216049629	244.478260362404	903.018886185004	1094.147849716145	235.876084042481	906.650144870652	833.013206518623	232.483091971358	1172.930723815997	1130.360265033036	801.375216237781	1414.297891616643	1132.218578818652	727.350822898034	
109	45.038857142857	860.993169005848	1014.402280408077	522.785125000756	1019.529789435384	1435.071369073170	318.401014552513	1145.440249805274	1367.766942752486	463.429896342229	1090.475778851190	1444.983342905505	647.179129343856	1025.887310241256	1499.332235871858	473.198006425157	1098.717542595085	941.345668873352	612.392917722337	1055.388520002158	969.492065966092	342.262231723330	1114.534933435943	734.364738364961	581.027559793040	1025.601972123260	632.397737418173	646.424016853955	1091.145247918835	573.852840780427	562.175572240087	1082.500973510343	488.743880219324	567.578627087580	1140.147331148914	792.756116609072	361.729805974675	1096.343803148641	666.620946327236	279.072871928978	1205.124147752360	608.009173443862	331.243155576675	1225.428292201593	526.096146147777	318.543956447371	1176.914093503199	452.672631229401	309.937279859772	1053.100198040595	371.065094268500	266.510563120221	1087.979531066085	241.293012944563	311.225626539324	1050.167561183466	402.198143903175	575.162390944233	975.024321394288	301.634092839945	637.845523187351	1009.404869455756	205.440604761255	570.756948783076	869.075247146379	44.382289252008	536.752341580857	1039.006884885187	95.358801615300	577.442031777915	950.222107212975	36.937089963788	614.366309541127	1158.912700670714	41.559987884883	609.333751559018	934.949469072958	116.951488992255	357.275099840788	995.150026819830	95.999254606339	269.611785926622	1093.676167529907	136.271125479039	284.744837725979	1198.962531889308	57.198847275289	241.386479783020	896.853068619683	1096.013284743104	238.867885276288	896.393455740946	834.747183950888	237.353267882351	1181.298280448518	1131.709840662438	800.148118211223	1421.641787179946	1143.546195052991	724.572041663322	
